<?xml version="1.0" encoding="utf-8"?>
<!-- Generator: Adobe Illustrator 25.2.0, SVG Export Plug-In . SVG Version: 6.00 Build 0)  -->
<svg version="1.1" id="Layer_1" xmlns="http://www.w3.org/2000/svg" xmlns:xlink="http://www.w3.org/1999/xlink" x="0px" y="0px"
	 viewBox="0 0 171 36" style="enable-background:new 0 0 171 36;" xml:space="preserve">
<style type="text/css">
	.st0{fill-rule:evenodd;clip-rule:evenodd;fill:url(#SVGID_1_);}
	.st1{fill:#FFFDFD;}
</style>
<g>
	
		<linearGradient id="SVGID_1_" gradientUnits="userSpaceOnUse" x1="21.5" y1="34.4646" x2="21.5" y2="4.4646" gradientTransform="matrix(1 0 0 -1 0 37.4646)">
		<stop  offset="0" style="stop-color:#877EFF"/>
		<stop  offset="0.4615" style="stop-color:#685DFF"/>
		<stop  offset="1" style="stop-color:#3121FF"/>
	</linearGradient>
	<path class="st0" d="M34.3,18c0,7.1-5.7,12.8-12.8,12.8c-7.1,0-12.8-5.7-12.8-12.8S14.4,5.2,21.5,5.2C28.6,5.2,34.3,10.9,34.3,18z
		 M36.5,18c0,8.3-6.7,15-15,15c-8.3,0-15-6.7-15-15c0-8.3,6.7-15,15-15C29.8,3,36.5,9.7,36.5,18z M29.8,11.3c0,0.9-0.7,1.6-1.6,1.6
		c-0.9,0-1.6-0.7-1.6-1.6s0.7-1.6,1.6-1.6C29.1,9.7,29.8,10.4,29.8,11.3z M17,19.2c0.7,2.5,3.2,4,5.7,3.3c2.5-0.7,4-3.2,3.3-5.7
		s-3.2-4-5.7-3.3S16.3,16.7,17,19.2z M14.9,19.8c1,3.6,4.7,5.8,8.4,4.8c3.6-1,5.8-4.7,4.8-8.4c-1-3.6-4.7-5.8-8.4-4.8
		C16.1,12.4,13.9,16.1,14.9,19.8z"/>
	<g>
		<path class="st1" d="M55.2,20.2c-0.3,1.7-0.9,3.1-2.1,4.1c-1.1,1-2.6,1.4-4.4,1.4c-2.1,0-3.8-0.7-5.2-2.1s-2-3.2-2-5.5
			c0-2.4,0.7-4.2,2-5.6c1.3-1.4,3.1-2.1,5.3-2.1c1.8,0,3.2,0.5,4.3,1.4c1.1,0.9,1.8,2.2,1.9,3.8h-3.5c-0.2-0.7-0.5-1.2-1-1.6
			c-0.5-0.4-1.1-0.5-1.9-0.5c-1,0-1.9,0.4-2.5,1.2c-0.6,0.8-0.9,2-0.9,3.4c0,1.4,0.3,2.5,0.9,3.3c0.6,0.8,1.4,1.2,2.4,1.2
			c0.8,0,1.5-0.2,2-0.6c0.5-0.4,0.8-1,0.9-1.8H55.2z"/>
		<path class="st1" d="M56.7,18.1c0-2.4,0.7-4.2,2-5.6c1.3-1.4,3.1-2.1,5.3-2.1c2.2,0,4,0.7,5.4,2.1c1.3,1.4,2,3.2,2,5.6
			c0,2.4-0.7,4.2-2,5.6c-1.3,1.4-3.1,2.1-5.4,2.1c-2.2,0-4-0.7-5.3-2.1S56.7,20.4,56.7,18.1z M60.5,18.1c0,1.5,0.3,2.6,0.9,3.4
			s1.5,1.2,2.6,1.2c1.1,0,2-0.4,2.6-1.2c0.6-0.8,0.9-1.9,0.9-3.4c0-1.5-0.3-2.6-0.9-3.4c-0.6-0.8-1.5-1.2-2.6-1.2
			c-1.1,0-2,0.4-2.6,1.2C60.8,15.5,60.5,16.6,60.5,18.1z"/>
		<path class="st1" d="M73.6,25.3V10.8h4l2.7,4.8c0.4,0.8,0.9,1.5,1.3,2.3s0.8,1.5,1.1,2.3C82.7,19,82.7,18,82.6,17c0-1,0-1.8,0-2.5
			v-3.7h3.6v14.6h-4l-2.9-4.9c-0.3-0.6-0.7-1.2-1.1-2S77.4,17,77,16.1c0.1,0.9,0.1,1.8,0.2,2.6c0,0.8,0,1.5,0,2.2v4.4H73.6z"/>
		<path class="st1" d="M89.1,25.3V10.8h4l2.7,4.8c0.4,0.8,0.9,1.5,1.3,2.3s0.8,1.5,1.1,2.3C98.2,19,98.2,18,98.1,17c0-1,0-1.8,0-2.5
			v-3.7h3.6v14.6h-4l-2.9-4.9c-0.3-0.6-0.7-1.2-1.1-2s-0.8-1.5-1.3-2.3c0.1,0.9,0.1,1.8,0.2,2.6c0,0.8,0,1.5,0,2.2v4.4H89.1z"/>
		<path class="st1" d="M104.6,25.3V10.8h11.1v3h-7.3v2.6h6.7v2.9h-6.7v3.1h7.6v3H104.6z"/>
		<path class="st1" d="M131,20.2c-0.3,1.7-0.9,3.1-2.1,4.1c-1.1,1-2.6,1.4-4.4,1.4c-2.1,0-3.8-0.7-5.2-2.1s-2-3.2-2-5.5
			c0-2.4,0.7-4.2,2-5.6c1.3-1.4,3.1-2.1,5.3-2.1c1.8,0,3.2,0.5,4.3,1.4c1.1,0.9,1.8,2.2,1.9,3.8h-3.5c-0.2-0.7-0.5-1.2-1-1.6
			c-0.5-0.4-1.1-0.5-1.9-0.5c-1,0-1.9,0.4-2.5,1.2c-0.6,0.8-0.9,2-0.9,3.4c0,1.4,0.3,2.5,0.9,3.3c0.6,0.8,1.4,1.2,2.4,1.2
			c0.8,0,1.5-0.2,2-0.6c0.5-0.4,0.8-1,0.9-1.8H131z"/>
		<path class="st1" d="M136.1,25.3V13.7h-4.2v-3H144v3h-4.2v11.6H136.1z"/>
		<path class="st1" d="M145,18.1c0-2.4,0.7-4.2,2-5.6c1.3-1.4,3.1-2.1,5.3-2.1c2.2,0,4,0.7,5.4,2.1c1.3,1.4,2,3.2,2,5.6
			c0,2.4-0.7,4.2-2,5.6c-1.3,1.4-3.1,2.1-5.4,2.1c-2.2,0-4-0.7-5.3-2.1S145,20.4,145,18.1z M148.8,18.1c0,1.5,0.3,2.6,0.9,3.4
			c0.6,0.8,1.5,1.2,2.6,1.2c1.1,0,2-0.4,2.6-1.2s0.9-1.9,0.9-3.4c0-1.5-0.3-2.6-0.9-3.4c-0.6-0.8-1.5-1.2-2.6-1.2
			c-1.1,0-2,0.4-2.6,1.2C149.1,15.5,148.8,16.6,148.8,18.1z"/>
	</g>
</g>
</svg>
